# xmcd CD database file
#
# Track frame offsets:
#	150
#	10680
#	19392
#	29980
#	40852
#	50720
#	62227
#	72602
#	84930
#	99220
#	109632
#	119037
#	131667
#	141802
#	152183
#	161695
#	175188
#	192250
#	207785
#	218055
#	249888
#	264293
#	277755
#	291345
#	308657
#
# Disc length: 4332 seconds
#
# Revision: 2
# Processed by: cddbd v1.4b41PL1 Copyright (c) Steve Scherf et al.
# Submitted via: Feurio! 1.52 - http://www.feurio.com
#
DISCID=6b10ea19
DTITLE=Various Artist - The Beatles: 25 No.1 - Hits
DYEAR=1900
DGENRE=
TTITLE0=??? - Love Me Do
TTITLE1=??? - From Me To You
TTITLE2=??? - She Loves You
TTITLE3=??? - I Want To Hold Your Hand
TTITLE4=??? -  Can't Buy Me Love
TTITLE5=??? -  A Hard Day's Night
TTITLE6=??? - I Feel Fine
TTITLE7=??? - Eight Days A Week
TTITLE8=??? - Ticket To Ride
TTITLE9=??? - Help!
TTITLE10=??? -  Yesterday
TTITLE11=??? - Day Tripper
TTITLE12=??? - We Can Work It Out
TTITLE13=??? -  Paperback Writer
TTITLE14=??? - Eleanor Rigby
TTITLE15=??? - Penny Lane
TTITLE16=??? -  All You Need Is Love
TTITLE17=??? -  Hello, Goobye
TTITLE18=??? -  Lady Madonna
TTITLE19=??? - Hey Jude
TTITLE20=??? - Get Back
TTITLE21=??? - The Ballad Of John And Yoko
TTITLE22=??? - Something
TTITLE23=??? -  Let It Be
TTITLE24=??? -  The Long And Winding Road
EXTD=
EXTT0=
EXTT1=
EXTT2=
EXTT3=
EXTT4=
EXTT5=
EXTT6=
EXTT7=
EXTT8=
EXTT9=
EXTT10=
EXTT11=
EXTT12=
EXTT13=
EXTT14=
EXTT15=
EXTT16=
EXTT17=
EXTT18=
EXTT19=
EXTT20=
EXTT21=
EXTT22=
EXTT23=
EXTT24=
PLAYORDER=
